{"accessors":[{"bufferView":3,"componentType":5126,"count":1778,"max":[72.46939086914062,565.9696044921875,10.768976211547852],"min":[-111.7930679321289,-0.3599169850349426,-181.064697265625],"type":"VEC3"},{"bufferView":3,"byteOffset":21336,"componentType":5126,"count":1778,"max":[0.9979544281959534,0.9973704218864441,0.9998277425765991],"min":[-0.9970104694366455,-0.998445987701416,-0.9996914863586426],"type":"VEC3"},{"bufferView":2,"componentType":5126,"count":1778,"max":[0.9900219440460205,0.9977824687957764],"min":[0.005395442247390747,0.010245800018310547],"type":"VEC2"},{"bufferView":1,"componentType":5125,"count":7590,"type":"SCALAR"},{"bufferView":5,"componentType":5126,"count":38,"max":[1,0.07177013158798218,0.07563596218824387,0,0.07573118060827255,1,0.06934503465890884,0,0.07563246041536331,0.07500221580266953,1,0,30.37571144104004,16.413084030151367,27.40659523010254,1],"min":[-0.07461773604154587,-0.07474704086780548,-0.07568935304880142,0,-0.07570933550596237,-0.045252177864313126,-0.06478989869356155,0,-0.07565180212259293,-0.07565181702375412,-0.0750974714756012,0,-36.08538055419922,-41.54765319824219,-31.243253707885742,1],"type":"MAT4"},{"bufferView":0,"componentType":5123,"count":1778,"type":"VEC4"},{"bufferView":4,"componentType":5126,"count":1778,"max":[1,0.4838709533214569,0.3225806653499603,0],"min":[0.3548387289047241,0,0,0],"type":"VEC4"}],"asset":{"extras":{"author":"Craft Tama (https://sketchfab.com/rizky08)","license":"CC-BY-4.0 (http://creativecommons.org/licenses/by/4.0/)","source":"https://sketchfab.com/3d-models/ultraman-seven-ebfaf719cdc14d78be0f2cbc7bf735a0","title":"Ultraman seven"},"generator":"Sketchfab-13.31.0","version":"2.0"},"bufferViews":[{"buffer":0,"byteLength":14224,"byteStride":8,"name":"shortBufferViews","target":34962},{"buffer":0,"byteLength":30360,"byteOffset":14224,"name":"floatBufferViews","target":34963},{"buffer":0,"byteLength":14224,"byteOffset":44584,"byteStride":8,"name":"floatBufferViews","target":34962},{"buffer":0,"byteLength":42672,"byteOffset":58808,"byteStride":12,"name":"floatBufferViews","target":34962},{"buffer":0,"byteLength":28448,"byteOffset":101480,"byteStride":16,"name":"floatBufferViews","target":34962},{"buffer":0,"byteLength":2432,"byteOffset":129928,"name":"floatBufferViews"}],"buffers":[{"byteLength":132360,"uri":"data:application/octet-stream;base64,"}],"extensionsUsed":["KHR_materials_clearcoat"],"images":[{"uri":"data:application/octet-stream;base64,"}],"materials":[{"doubleSided":true,"extensions":{"KHR_materials_clearcoat":{"clearcoatFactor":0.24838170935378087,"clearcoatRoughnessFactor":0.04}},"name":"AD346C0C-EC95-4F7D-8C70-F5227D28298E","pbrMetallicRoughness":{"baseColorTexture":{"index":0},"metallicFactor":0,"roughnessFactor":0.9577051494623774}}],"meshes":[{"name":"saiwen1_{AD346C0C-EC95-4F7D-8C70-F5227D28298E}_0","primitives":[{"attributes":{"JOINTS_0":5,"NORMAL":1,"POSITION":0,"TEXCOORD_0":2,"WEIGHTS_0":6},"indices":3,"material":0,"mode":4}]}],"nodes":[{"children":[1],"matrix":[1,0,0,0,0,2.220446049250313e-16,-1,0,0,1,2.220446049250313e-16,0,0,0,0,1],"name":"Sketchfab_model"},{"children":[2],"matrix":[0.009999999776482582,0,0,0,0,0,0.009999999776482582,0,0,-0.009999999776482582,0,0,0,0,0,1],"name":"0000-Dsaiwenout.fbx"},{"children":[3],"name":"RootNode"},{"children":[4,6,5],"name":"Object_3"},{"children":[7],"name":"_rootJoint"},{"matrix":[0.9999999999999999,3.469446951953614e-18,5.551115123125783e-17,0,-3.469446951953614e-18,0.9999999999999999,1.3010426069826053e-18,0,-5.551115123125782e-17,-1.3010426069826053e-18,0.9999999999999997,0,-3.552713678800501e-15,5.684341886080802e-14,-1.4210854715202004e-14,1],"name":"Object_5"},{"mesh":0,"name":"Object_6","skin":0},{"children":[8],"name":"0000-Dsaiwen_036","rotation":[-6.123234262925839e-17,1,6.123234262925839e-17,-3.7493993930529855e-33],"scale":[60,60,60]},{"children":[9,43],"name":"Animator_01","rotation":[-7.519822889906537e-24,-8.348684016723682e-40,-7.519822889906537e-24,1],"scale":[0.2200000286102295,0.2200000286102295,0.2200000286102295]},{"children":[10],"name":"Bip001_02","rotation":[-0.43371662497520447,-0.5103192925453186,-0.5363529920578003,0.5136045217514038],"scale":[1.0000001192092896,1.0000001192092896,1.0000001192092896],"translation":[1.341752052307129,22.479660034179688,5.669686317443848]},{"children":[11],"name":"Bip001 Pelvis_03","rotation":[0.5037497282028198,0.5196146368980408,0.5530216693878174,-0.41279998421669006],"scale":[1.000000238418579,0.9999998807907104,0.9999998211860657]},{"children":[12,16,20],"name":"Bip001 Spine_04","rotation":[-0.043926507234573364,-0.006905563175678253,0.018765145912766457,0.9988346695899963],"scale":[0.9999999403953552,1.0000001192092896,0.9999997615814209],"translation":[2.2287521362304688,0.35601806640625,-0.10714864730834961]},{"children":[13],"name":"Bip001 L Thigh_05","rotation":[0.11138772964477539,0.9896658658981323,0.03555445745587349,-0.08300657570362091],"scale":[1,1.0000003576278687,1.0000001192092896],"translation":[-2.2121925354003906,-0.47754526138305664,2.327317237854004]},{"children":[14],"name":"Bip001 L Calf_06","rotation":[-1.0613740997200694e-9,-7.9622299864468e-9,-0.1321324110031128,0.9912320971488953],"scale":[1,0.9999998807907104,0.9999998807907104],"translation":[9.517956733703613,-9.5367431640625e-7,9.5367431640625e-7]},{"children":[15],"name":"Bip001 L Foot_07","rotation":[-0.08475326746702194,-0.05340675637125969,-0.004582082852721214,0.9949591159820557],"scale":[1.000000238418579,1.000000238418579,1],"translation":[10.752229690551758,4.76837158203125e-7,8.881784197001252e-16]},{"name":"Bip001 L Toe0_08","rotation":[-1.2261288873105514e-7,1.3290255651554617e-7,0.7071070671081543,0.7071064710617065],"scale":[1.0000001192092896,0.9999997019767761,1.0000001192092896],"translation":[2.0418190956115723,2.338883399963379,-9.5367431640625e-7]},{"children":[17],"name":"Bip001 R Thigh_09","rotation":[-0.0883970856666565,0.9944077730178833,-0.05706556513905525,0.009090368635952473],"scale":[1,1.000000238418579,1],"translation":[-2.266265869140625,-0.0857095718383789,-2.10732364654541]},{"children":[18],"name":"Bip001 R Calf_010","rotation":[5.96708957800729e-8,2.445519120541917e-9,-0.021456625312566757,0.9997698068618774],"scale":[1,1,1.0000001192092896],"translation":[9.517955780029297,-7.152557373046875e-7,1.1920928955078125e-7]},{"children":[19],"name":"Bip001 R Foot_011","rotation":[0.049882832914590836,-0.02603789046406746,0.07114847749471664,0.9958773255348206],"scale":[1.0000001192092896,0.9999998807907104,1.0000001192092896],"translation":[10.752229690551758,-2.980232238769531e-7,-2.086162567138672e-7]},{"name":"Bip001 R Toe0_012","rotation":[0.050321824848651886,0.050322677940130234,0.7053142189979553,0.7053135633468628],"scale":[1.0000005960464478,0.999999463558197,1.0000001192092896],"translation":[2.0418190956115723,2.338884115219116,0]},{"children":[21],"name":"Bip001 Spine1_013","rotation":[-0.036745037883520126,0.03657853603363037,-0.056384626775979996,0.9970619678497314],"scale":[0.9999999403953552,1.000000238418579,1.0000001192092896],"translation":[3.6623878479003906,-0.004347324371337891,0.0003399848937988281]},{"children":[22,23,33],"name":"Bip001 Neck_014","rotation":[0.09444571286439896,0.004466031678020954,0.203295037150383,0.9745415449142456],"scale":[0.9999998211860657,1,0.9999996423721313],"translation":[6.710302352905273,-0.15027618408203125,-0.00011682510375976562]},{"name":"Bip001 Head_015","rotation":[0.0668596625328064,-0.05616934970021248,-0.09358450770378113,0.9917745590209961],"scale":[1.0000001192092896,1.0000001192092896,1.0000001192092896],"translation":[0.7947158813476562,-0.000001430511474609375,-4.76837158203125e-7]},{"children":[24],"name":"Bip001 L Clavicle_016","rotation":[0.5057814717292786,-0.16960743069648743,0.8361325860023499,0.1276753693819046],"scale":[1.0000004768371582,1.000000238418579,0.9999996423721313],"translation":[-1.3221817016601562,0.8698539733886719,1.3911714553833008]},{"children":[25],"name":"Bip001 L UpperArm_017","rotation":[0.22844934463500977,0.4476163387298584,0.06534504145383835,0.8620792031288147],"scale":[1.000000238418579,1.0000001192092896,0.9999996423721313],"translation":[3.347346782684326,9.5367431640625e-7,0.0000019073486328125]},{"children":[26],"name":"Bip001 L Forearm_018","rotation":[4.496370564766039e-8,-5.672822211977291e-9,-0.286575049161911,0.9580578207969666],"scale":[0.9999998807907104,0.9999999403953552,0.9999998211860657],"translation":[5.90202522277832,-4.76837158203125e-7,-9.5367431640625e-7]},{"children":[27,29,31],"name":"Bip001 L Hand_019","rotation":[-0.7376692891120911,0.006113178562372923,0.009026234038174152,0.6750742197036743],"scale":[1,1.0000008344650269,0.9999995231628418],"translation":[4.75629997253418,0,9.5367431640625e-7]},{"children":[28],"name":"Bip001 L Finger0_020","rotation":[0.7016727328300476,0.3059801757335663,0.08482028543949127,0.6378377676010132],"scale":[0.9999998807907104,1.0000003576278687,0.9999995827674866],"translation":[0.6120567321777344,0.7631540298461914,-0.8983058929443359]},{"name":"Bip001 L Finger01_021","rotation":[1.0880726541984131e-8,-4.689191612783361e-8,0.22603321075439453,0.9741196036338806],"scale":[1.0000001192092896,1.0000001192092896,0.9999997615814209],"translation":[1.1174583435058594,-3.552713678800501e-15,0.000001430511474609375]},{"children":[30],"name":"Bip001 L Finger1_022","rotation":[-0.016324061900377274,-0.06512975692749023,0.39649254083633423,0.9155791997909546],"scale":[0.9999997615814209,1.0000001192092896,1.0000001192092896],"translation":[2.026754379272461,0.15360069274902344,-1.0951519012451172]},{"name":"Bip001 L Finger11_023","rotation":[1.8388506273225858e-9,1.6558216131556946e-8,0.34575846791267395,0.9383235573768616],"scale":[0.9999997615814209,1.0000001192092896,1],"translation":[0.9779796600341797,9.5367431640625e-7,-9.5367431640625e-7]},{"children":[32],"name":"Bip001 L Finger2_024","rotation":[-0.004625529516488314,-0.01688591204583645,0.4845888018608093,0.8745668530464172],"scale":[0.9999995827674866,1.000000238418579,1.0000001192092896],"translation":[2.3461151123046875,-0.05547142028808594,0.10733413696289062]},{"name":"Bip001 L Finger21_025","rotation":[6.743683833576597e-9,3.1676294920401915e-9,0.425152063369751,0.905121922492981],"scale":[0.9999995827674866,1.0000004768371582,1.0000001192092896],"translation":[0.9076957702636719,1.7763568394002505e-15,1.7763568394002505e-15]},{"children":[34],"name":"Bip001 R Clavicle_00","rotation":[-0.5127462148666382,0.16779424250125885,0.8308618068695068,0.13640128076076508],"scale":[1.0000005960464478,1.000000238418579,0.9999995827674866],"translation":[-1.4105911254882812,0.3163943290710449,-1.532841682434082]},{"children":[35],"name":"Bip001 R UpperArm_026","rotation":[-0.23661862313747406,-0.38660818338394165,0.09871020168066025,0.885890543460846],"scale":[1.000000238418579,1.0000004768371582,0.9999994039535522],"translation":[3.347349166870117,0,0]},{"children":[36],"name":"Bip001 R Forearm_027","rotation":[7.620950093212286e-9,-7.095176890459243e-9,-0.28215354681015015,0.9593693614006042],"scale":[1,1.000000238418579,0.9999998807907104],"translation":[5.902021408081055,4.76837158203125e-7,1.7763568394002505e-15]},{"children":[37,39,41],"name":"Bip001 R Hand_028","rotation":[0.7376692295074463,-0.006113198585808277,0.009026243351399899,0.6750742793083191],"scale":[1.0000001192092896,1.0000017881393433,0.9999982714653015],"translation":[4.7563018798828125,0,9.5367431640625e-7]},{"children":[38],"name":"Bip001 R Finger0_029","rotation":[-0.7016727924346924,-0.30598026514053345,0.08482002466917038,0.6378377079963684],"scale":[1,1.000002145767212,0.9999979734420776],"translation":[0.6120510101318359,0.7631540298461914,0.8983058929443359]},{"name":"Bip001 R Finger01_030","rotation":[2.81890528697204e-8,1.0365210911800204e-8,0.22603309154510498,0.9741197228431702],"scale":[0.9999998211860657,1.0000003576278687,1],"translation":[1.117462158203125,1.7763568394002505e-15,-2.384185791015625e-7]},{"children":[40],"name":"Bip001 R Finger1_031","rotation":[0.016324089840054512,0.0651298239827156,0.3964925706386566,0.9155793190002441],"scale":[0.9999997615814209,1.0000004768371582,1.0000001192092896],"translation":[2.0267505645751953,0.15360021591186523,1.0951547622680664]},{"name":"Bip001 R Finger11_032","rotation":[5.703014949176577e-9,6.071638303239979e-9,0.34575825929641724,0.9383236169815063],"scale":[0.9999995827674866,1.000000238418579,1.0000001192092896],"translation":[0.9779815673828125,0,-8.881784197001252e-16]},{"children":[42],"name":"Bip001 R Finger2_033","rotation":[0.004625539295375347,0.016885925084352493,0.48458877205848694,0.8745668530464172],"scale":[0.9999996423721313,1.0000005960464478,0.9999998807907104],"translation":[2.3461132049560547,-0.05547046661376953,-0.10733318328857422]},{"name":"Bip001 R Finger21_034","rotation":[5.5558317946236e-9,5.69652058857173e-9,0.4251519441604614,0.9051219820976257],"scale":[0.999999463558197,1.0000005960464478,1.0000001192092896],"translation":[0.9076938629150391,9.5367431640625e-7,0]},{"name":"Bone001_035","rotation":[-0.010476609691977501,0.692270815372467,-0.01792183332145214,0.7213391661643982],"scale":[1.0000001192092896,1,1.000000238418579],"translation":[1.22005295753479,41.846195220947266,6.920496940612793]}],"samplers":[{"magFilter":9729,"minFilter":9987,"wrapS":10497,"wrapT":10497}],"scene":0,"scenes":[{"name":"Sketchfab_Scene","nodes":[0]}],"skins":[{"inverseBindMatrices":4,"joints":[4,7,8,9,10,11,12,13,14,15,16,17,18,19,20,21,22,23,24,25,26,27,28,29,30,31,32,33,34,35,36,37,38,39,40,41,42,43],"skeleton":4}],"textures":[{"sampler":0,"source":0}]}